<svg width="20" height="20" viewBox="0 0 20 20" fill="none" xmlns="http://www.w3.org/2000/svg">
<path d="M9.99999 3.82922C9.092 2.9943 7.9035 2.53092 6.66999 2.53088C6.01711 2.53156 5.37081 2.66135 4.76828 2.91277C4.16574 3.1642 3.61888 3.5323 3.15916 3.99588C1.19833 5.96505 1.19916 9.04505 3.16083 11.0059L9.27083 17.1159C9.41249 17.3651 9.68583 17.5259 9.99999 17.5259C10.129 17.5246 10.2559 17.4931 10.3705 17.4339C10.4851 17.3748 10.5843 17.2895 10.66 17.1851L16.8392 11.0059C18.8008 9.04422 18.8008 5.96505 16.8375 3.99255C16.378 3.52981 15.8316 3.16246 15.2296 2.91162C14.6277 2.66078 13.9821 2.53138 13.33 2.53088C12.0965 2.53109 10.9081 2.99444 9.99999 3.82922V3.82922ZM15.6592 5.17088C16.9617 6.48005 16.9625 8.52505 15.6608 9.82755L9.99999 15.4884L4.33916 9.82755C3.03749 8.52505 3.03833 6.48005 4.33749 5.17422C4.97083 4.54422 5.79916 4.19755 6.66999 4.19755C7.54083 4.19755 8.36583 4.54422 8.99416 5.17255L9.41083 5.58922C9.48815 5.66667 9.57999 5.72812 9.68108 5.77005C9.78218 5.81197 9.89055 5.83355 9.99999 5.83355C10.1094 5.83355 10.2178 5.81197 10.3189 5.77005C10.42 5.72812 10.5118 5.66667 10.5892 5.58922L11.0058 5.17255C12.2658 3.91505 14.4008 3.91838 15.6592 5.17088V5.17088Z" fill="#999999"/>
</svg>
