<svg width="30" height="30" viewBox="0 0 30 30" fill="none" xmlns="http://www.w3.org/2000/svg">
<path d="M14.0237 4.21879L10 9.24879L5.97625 4.21879C5.81373 4.01789 5.59306 3.87218 5.34447 3.80162C5.09589 3.73107 4.83157 3.73912 4.58774 3.82469C4.34392 3.91025 4.13253 4.06914 3.98255 4.27956C3.83257 4.48998 3.75134 4.74164 3.75 5.00004V23.75C3.75 25.1288 4.87125 26.25 6.25 26.25H23.75C25.1288 26.25 26.25 25.1288 26.25 23.75V5.00004C26.2487 4.74164 26.1674 4.48998 26.0175 4.27956C25.8675 4.06914 25.6561 3.91025 25.4123 3.82469C25.1684 3.73912 24.9041 3.73107 24.6555 3.80162C24.4069 3.87218 24.1863 4.01789 24.0237 4.21879L20 9.24879L15.9763 4.21879C15.5 3.62629 14.5 3.62629 14.0237 4.21879V4.21879ZM6.25 23.75V21.25H23.7512V23.75H6.25ZM19.0237 12.0313C19.5 12.625 20.5012 12.625 20.9775 12.0313L23.75 8.56379L23.7512 18.75H6.25V8.56379L9.02375 12.0313C9.5 12.625 10.5012 12.625 10.9775 12.0313L15 7.00129L19.0237 12.0313Z" fill="black"/>
</svg>
