<svg width="20" height="20" viewBox="0 0 20 20" fill="none" xmlns="http://www.w3.org/2000/svg">
<path d="M4.16667 18.3333H15.8333C16.7525 18.3333 17.5 17.5858 17.5 16.6666V7.49996C17.5 7.27895 17.4122 7.06698 17.2559 6.9107C17.0996 6.75442 16.8877 6.66663 16.6667 6.66663H14.1667V5.83329C14.1667 3.53579 12.2975 1.66663 10 1.66663C7.7025 1.66663 5.83333 3.53579 5.83333 5.83329V6.66663H3.33333C3.11232 6.66663 2.90036 6.75442 2.74408 6.9107C2.5878 7.06698 2.5 7.27895 2.5 7.49996V16.6666C2.5 17.5858 3.2475 18.3333 4.16667 18.3333ZM7.5 5.83329C7.5 4.45496 8.62167 3.33329 10 3.33329C11.3783 3.33329 12.5 4.45496 12.5 5.83329V6.66663H7.5V5.83329ZM4.16667 8.33329H5.83333V9.99996H7.5V8.33329H12.5V9.99996H14.1667V8.33329H15.8333L15.835 16.6666H4.16667V8.33329Z" fill="#999999"/>
</svg>
