<svg width="20" height="20" viewBox="0 0 20 20" fill="none" xmlns="http://www.w3.org/2000/svg">
<path d="M9.99999 1.66663C5.40499 1.66663 1.66666 5.40496 1.66666 9.99996V13.4525C1.66666 14.3058 2.41416 15 3.33332 15H4.16666C4.38767 15 4.59963 14.9122 4.75591 14.7559C4.91219 14.5996 4.99999 14.3876 4.99999 14.1666V9.88079C4.99999 9.65978 4.91219 9.44782 4.75591 9.29154C4.59963 9.13526 4.38767 9.04746 4.16666 9.04746H3.40999C3.87332 5.82246 6.64832 3.33329 9.99999 3.33329C13.3517 3.33329 16.1267 5.82246 16.59 9.04746H15.8333C15.6123 9.04746 15.4003 9.13526 15.2441 9.29154C15.0878 9.44782 15 9.65978 15 9.88079V15C15 15.9191 14.2525 16.6666 13.3333 16.6666H11.6667V15.8333H8.33332V18.3333H13.3333C15.1717 18.3333 16.6667 16.8383 16.6667 15C17.5858 15 18.3333 14.3058 18.3333 13.4525V9.99996C18.3333 5.40496 14.595 1.66663 9.99999 1.66663Z" fill="#999999"/>
</svg>
