<svg width="193" height="17" viewBox="0 0 193 17" fill="none" xmlns="http://www.w3.org/2000/svg">
<path d="M8.85573 2.3274V17H7.38961V2.3274H0V1H16.2454V2.3274H8.85573Z" fill="black"/>
<path d="M40.3128 17V9.22124H25.7583V17H24.2805V1.00001H25.7583V7.89355H40.3128V1H41.7908V17H40.3128Z" fill="black"/>
<path d="M53.5857 10.1528V17H52.1078V1.00001H60.1952C61.2626 0.984026 62.3287 1.07961 63.3756 1.28516C64.1486 1.43124 64.8854 1.72387 65.5451 2.14678C66.0849 2.50354 66.5129 3.00171 66.7807 3.58516C67.0534 4.22213 67.1863 4.90863 67.1709 5.59973C67.2241 6.64037 66.8827 7.66336 66.2131 8.47003C65.5747 9.18837 64.5461 9.67945 63.1271 9.94324L68.6724 17H66.8161L61.5783 10.1062C61.3575 10.1219 61.133 10.1335 60.9046 10.141C60.6758 10.1489 60.4394 10.1528 60.1952 10.1528H53.5857ZM65.6575 5.59973C65.6825 5.02467 65.5561 4.453 65.2906 3.94025C65.0142 3.4904 64.5935 3.14411 64.0949 2.95614C63.3997 2.69108 62.6674 2.53211 61.9234 2.48474C61.0278 2.40298 59.9291 2.36215 58.6275 2.36225H53.5857V8.79029H58.5802C59.882 8.79029 60.9826 8.75339 61.8821 8.6796C62.631 8.63829 63.3692 8.48522 64.0715 8.22562C64.5731 8.04395 64.9996 7.70409 65.2846 7.25893C65.556 6.74817 65.6847 6.17556 65.6575 5.59973V5.59973Z" fill="black"/>
<path d="M77.1211 17V1H90.6587V2.36224H78.7289V7.8705H90.0557V9.19791H78.7289V15.6375H90.8361V17L77.1211 17Z" fill="black"/>
<path d="M115.122 17L112.888 12.7728H101.857L99.622 17H98.0021L106.503 1H108.241L116.742 17H115.122ZM107.378 2.40888L102.578 11.4454H112.166L107.378 2.40888Z" fill="black"/>
<path d="M142.506 8.98828C142.519 9.90855 142.41 10.8265 142.181 11.719C141.991 12.4557 141.681 13.1574 141.265 13.7976C140.88 14.3779 140.394 14.8865 139.828 15.2997C139.253 15.7172 138.62 16.0506 137.948 16.2895C137.221 16.5473 136.468 16.7288 135.702 16.8311C134.858 16.9461 134.006 17.0026 133.154 16.9999H124.771V0.999945H133.13C134.379 0.99103 135.624 1.11984 136.843 1.38398C137.917 1.60957 138.93 2.05608 139.816 2.69425C140.676 3.33673 141.356 4.18423 141.791 5.15691C142.304 6.36908 142.548 7.67552 142.506 8.98828V8.98828ZM140.993 8.99418C141.004 8.21723 140.916 7.44198 140.733 6.68631C140.581 6.06977 140.329 5.48141 139.987 4.94397C139.674 4.46159 139.273 4.04071 138.804 3.7028C138.321 3.35985 137.791 3.087 137.23 2.89259C136.613 2.67903 135.974 2.53254 135.325 2.45574C134.599 2.36773 133.868 2.32485 133.136 2.32735H126.249V15.6725H133.136C134.205 15.6815 135.272 15.578 136.319 15.3638C137.214 15.1869 138.06 14.8211 138.798 14.2915C139.508 13.7575 140.065 13.0504 140.413 12.2401C140.832 11.2092 141.03 10.104 140.993 8.99418V8.99418Z" fill="black"/>
<path d="M151.653 17V1H165.19V2.36224H153.261V7.8705H164.587V9.19791H153.261V15.6375H165.368V17L151.653 17Z" fill="black"/>
<path d="M192.509 8.98828C192.522 9.90855 192.413 10.8265 192.184 11.719C191.994 12.4557 191.684 13.1574 191.268 13.7976C190.883 14.3779 190.397 14.8865 189.831 15.2997C189.257 15.7172 188.623 16.0506 187.952 16.2895C187.224 16.5473 186.471 16.7288 185.705 16.8311C184.861 16.9461 184.009 17.0026 183.157 16.9999H174.774V0.999945H183.134C184.382 0.99103 185.627 1.11984 186.846 1.38398C187.92 1.60957 188.933 2.05608 189.82 2.69425C190.679 3.33673 191.359 4.18423 191.794 5.15691C192.308 6.36908 192.551 7.67552 192.509 8.98828V8.98828ZM190.996 8.99418C191.007 8.21723 190.919 7.44198 190.736 6.68631C190.584 6.06977 190.332 5.48141 189.99 4.94397C189.677 4.46159 189.276 4.04071 188.807 3.7028C188.324 3.35985 187.794 3.087 187.233 2.89259C186.616 2.67903 185.977 2.53254 185.328 2.45574C184.602 2.36773 183.871 2.32485 183.139 2.32735H176.252V15.6725H183.139C184.208 15.6815 185.275 15.578 186.322 15.3638C187.217 15.1869 188.063 14.8211 188.801 14.2915C189.511 13.7575 190.068 13.0504 190.416 12.2401C190.835 11.2092 191.033 10.104 190.996 8.99418V8.99418Z" fill="black"/>
</svg>
